# xmcd
#
# Track frame offsets:
#	150
#	19022
#	28932
#	45970
#	63478
#	83234
#	103218
#	116121
#	134379
#	152910
#	172549
#	187840
#	200199
#	218507
#	246304
#	261717
#	279861
#	299110
#	322152
#	335418
#	340208
#
# Disc length: 4587 seconds
#
# Revision: 5
# Processed by: cddbd v1.5.2PL0 Copyright (c) Steve Scherf et al.
# Submitted via: EZCDAudioConverter 2.1.7.1
#
DISCID=4511e915
DTITLE=Jethro Tull - Stand Up 1/2
DYEAR=1969
DGENRE=
TTITLE0=A New Day Yesterday
TTITLE1=Jeffrey Goes To Leicester Square
TTITLE2=Bouree
TTITLE3=Back To The Family
TTITLE4=Look Into The Sun
TTITLE5=Nothing Is Easy
TTITLE6=Fat Man
TTITLE7=We Used To Know
TTITLE8=Reasons For Waiting
TTITLE9=For A Thousand Mothers
TTITLE10=Living In The Past
TTITLE11=Driving Song
TTITLE12=Sweet Dream
TTITLE13=17 [Mono Single]
TTITLE14=Living In The Past [Mono Single]
TTITLE15=Bouree [BBC Radio Session]
TTITLE16=A New Day Yesterday [BBC Radio Session]
TTITLE17=Nothing Is Easy [BBC Radio Session]
TTITLE18=Fat Man [BBC Radio Session]
TTITLE19=Stand Up U.S. Radio Spot #1
TTITLE20=Stand Up U.S. Radio Spot #2
EXTD=
EXTT0=
EXTT1=
EXTT2=
EXTT3=
EXTT4=
EXTT5=
EXTT6=
EXTT7=
EXTT8=
EXTT9=
EXTT10=
EXTT11=
EXTT12=
EXTT13=
EXTT14=
EXTT15=
EXTT16=
EXTT17=
EXTT18=
EXTT19=
EXTT20=
PLAYORDER=
